<?xml version="1.0" standalone="no"?>
<!DOCTYPE svg PUBLIC "-//W3C//DTD SVG 20010904//EN"
 "http://www.w3.org/TR/2001/REC-SVG-20010904/DTD/svg10.dtd">
<svg version="1.0" xmlns="http://www.w3.org/2000/svg"
 width="32" height="32" viewBox="0 0 25 16"
 preserveAspectRatio="xMidYMid meet">

<g transform="translate(0.000000,16.000000) scale(0.100000,-0.100000)"
fill="#FFFFFF" stroke="none">
<path d="M0 80 l0 -80 125 0 125 0 0 80 0 80 -125 0 -125 0 0 -80z m50 20 c0
-22 4 -40 8 -40 5 0 17 18 27 40 14 30 24 40 42 40 23 0 23 -1 -16 -62 -30
-47 -46 -64 -65 -66 -23 -3 -26 0 -26 25 0 15 -3 45 -6 66 -6 33 -4 37 15 37
18 0 21 -6 21 -40z m175 -7 c4 -27 9 -56 12 -65 3 -14 -2 -18 -21 -18 -14 0
-26 5 -26 10 0 6 -9 10 -19 10 -11 0 -23 -4 -26 -10 -7 -12 -48 -14 -43 -2 2
4 19 33 38 64 25 41 41 58 57 58 18 0 23 -7 28 -47z"/>
<path d="M175 70 c-3 -5 -1 -10 4 -10 6 0 11 5 11 10 0 6 -2 10 -4 10 -3 0 -8
-4 -11 -10z"/>
</g>
</svg>
